Coordinates
version=1
nRows=12
nColumns=24
inDegrees=yes

Units are S.I. units (second, meters, Newtons, ...)
Angles are in degrees.

endheader
time	pelvis_tilt	pelvis_list	pelvis_rotation	pelvis_tx	pelvis_ty	pelvis_tz	hip_flexion_r	hip_adduction_r	hip_rotation_r	knee_angle_r	ankle_angle_r	subtalar_angle_r	mtp_angle_r	hip_flexion_l	hip_adduction_l	hip_rotation_l	knee_angle_l	ankle_angle_l	subtalar_angle_l	mtp_angle_l	lumbar_extension	lumbar_bending	lumbar_rotation
      0.85816667	      1.13934473	     -6.16488605	      2.76634316	     -0.40426057	      1.00982327	      0.33372133	      6.09016573	      9.09071303	     -1.89375124	    -13.49068646	      9.16751851	     -8.88402911	     -2.91506255	     12.33006973	     -6.52941765	      0.35995009	    -70.57108364	     -5.84439294	     -8.25632675	      0.57940203	    -11.36044537	     16.34980168	     -4.18059112
      0.86233333	      1.17803733	     -5.94287535	      2.72612137	     -0.39937117	      1.01079162	      0.33417237	      5.50620732	      8.92048261	     -1.70642464	    -13.04207183	      9.15518740	     -9.02903885	     -2.77456649	     12.85180528	     -6.32731550	      0.24134043	    -70.47662002	     -5.24277800	     -8.46191133	     -1.08068105	    -11.47494996	     16.02842319	     -3.89696628
      0.86650000	      1.29599297	     -5.70924080	      2.72051944	     -0.39443677	      1.01185209	      0.33450757	      4.82847597	      8.71927498	     -1.65899277	    -12.57407687	      9.17430868	     -8.89403473	     -2.76905047	     13.26972477	     -6.10168152	      0.14664876	    -70.30487383	     -4.76235542	     -8.72447923	     -1.12376082	    -11.65978428	     15.71710564	     -3.72808307
      0.87066667	      1.37602502	     -5.45217825	      2.67702323	     -0.38953640	      1.01282760	      0.33491309	      4.21400786	      8.49731392	     -1.56069965	    -12.15860793	      9.17732588	     -8.85655958	     -2.76761401	     13.71179613	     -5.85823487	      0.01023637	    -70.08426165	     -4.24506700	     -8.94968906	     -1.15623267	    -11.82213745	     15.35312794	     -3.54210742
      0.87483333	      1.47288257	     -5.21456185	      2.62949995	     -0.38460191	      1.01379365	      0.33532785	      3.55507129	      8.30013626	     -1.42099708	    -11.68778606	      9.21985593	     -8.85328220	     -2.76547215	     14.12128188	     -5.64149937	     -0.13271885	    -69.80957817	     -3.77872603	     -9.15978884	     -1.22107527	    -11.99460192	     15.01477300	     -3.21067653
      0.87900000	      1.56243658	     -4.96509877	      2.58162215	     -0.37969380	      1.01471198	      0.33572621	      2.91884197	      8.08470456	     -1.30785930	    -11.24390733	      9.23913327	     -8.83559297	     -2.76539694	     14.52959572	     -5.40650797	     -0.27230921	    -69.48886505	     -3.29431994	     -9.33723340	     -1.28757598	    -12.15764806	     14.66370029	     -2.97281537
      0.88316667	      1.61659435	     -4.71353127	      2.53299912	     -0.37480307	      1.01553286	      0.33611663	      2.33673739	      7.86159822	     -1.21253787	    -10.83053125	      9.23789979	     -8.80128705	     -2.76724262	     14.96970293	     -5.16457184	     -0.40686352	    -69.13007254	     -2.80356472	     -9.48845030	     -1.32871634	    -12.28487224	     14.30825374	     -2.81440879
      0.88733333	      1.73810599	     -4.46715934	      2.48037494	     -0.36987842	      1.01641884	      0.33650319	      1.65753465	      7.64748452	     -1.09590258	    -10.36717025	      9.28122427	     -8.79096317	     -2.77065721	     15.31328422	     -4.93504410	     -0.55312784	    -68.70445783	     -2.34765933	     -9.62015646	     -1.40318527	    -12.47837492	     13.96574950	     -2.52081232
      0.89150000	      1.75191553	     -4.21242341	      2.42273503	     -0.36499463	      1.01710164	      0.33687061	      1.13317133	      7.41195077	     -1.02331440	     -9.97907732	      9.28248150	     -8.74895932	     -2.77423369	     15.77238085	     -4.68134264	     -0.68521971	    -68.24952920	     -1.86234570	     -9.73071852	     -1.44090549	    -12.54192338	     13.61577692	     -2.39078170
      0.89566667	      1.85037786	     -3.95950992	      2.37396665	     -0.36012738	      1.01786885	      0.33722721	      0.49992332	      7.18355972	     -0.91574532	     -9.55159092	      9.31341556	     -8.71692531	     -2.77967205	     16.12531605	     -4.43183963	     -0.81068426	    -67.73899452	     -1.40598633	     -9.79912339	     -1.49527978	    -12.73616108	     13.26124214	     -2.17008881
      0.89983333	      1.94914287	     -3.72518969	      2.32197117	     -0.35521783	      1.01857265	      0.33758442	     -0.13935429	      6.97363243	     -0.82478719	     -9.11345250	      9.37205625	     -8.69743613	     -2.78835141	     16.46271086	     -4.21078642	     -0.94677482	    -67.18408995	     -0.95982946	     -9.85689760	     -1.58276503	    -12.89732510	     12.92488677	     -1.88874332
      0.90400000	      2.02178990	     -3.48123473	      2.26999187	     -0.35034625	      1.01920200	      0.33791804	     -0.73186686	      6.74736233	     -0.74972240	     -8.70758961	      9.40701455	     -8.66065636	     -2.79902403	     16.81901422	     -3.96824327	     -1.07013547	    -66.58501922	     -0.50263242	     -9.89572683	     -1.67419318	    -13.03457588	     12.58066135	     -1.69183643
